# xmcd
#
# Track frame offsets:
# 150
# 23067
# 44740
# 70102
# 89377
# 101295
# 139917
#
# Disc length: 2187 seconds
#
# Revision: 0
# Processed by: cddbd v1.5.1PL0 Copyright (c) Steve Scherf et al.
# Submitted via: Audion 3.0.2 (http://www.panic.com/audion/)
#
DISCID=59088907
DTITLE=Continental - What was gained from what was lost
DYEAR=1900
DGENRE=
TTITLE0=Sown
TTITLE1=August Ends
TTITLE2=Ghost War
TTITLE3=Light Out
TTITLE4=No Shorty
TTITLE5=I and I Midnight Rendevous
TTITLE6=Pillow Talk
EXTD=
EXTT0=
EXTT1=
EXTT2=
EXTT3=
EXTT4=
EXTT5=
EXTT6=
PLAYORDER=
